<svg width="44" height="48" viewBox="0 0 44 48" fill="none" xmlns="http://www.w3.org/2000/svg">
<path fill-rule="evenodd" clip-rule="evenodd" d="M36.3333 24.3789C35.3761 24.8561 34.3942 25.2809 33.3919 25.6515L14.6529 44.8348L10.4075 44.5275L19.5268 34.9705L9.99276 25.2446C8.96591 24.811 7.96643 24.3137 7 23.7556C7 20.3622 7.85507 18.1028 10.3604 17.8041L9.97994 3.05304L13.5456 3.21319V5.65872L29.3474 5.33409L29.3003 3.16991L33.0627 3.22618L32.8404 17.8258C35.2346 18.2586 36.3333 20.7604 36.3333 24.3789ZM21.9766 32.4081L26.8377 27.3179C23.5572 27.7877 20.226 27.7615 16.9531 27.24L21.9766 32.4081ZM13.6268 14.8176L13.6739 22.9159C18.9333 24.2083 24.4037 24.3559 29.7236 23.3488L29.5398 14.5102C25.6021 15.5361 17.744 15.8391 13.6268 14.8176ZM33.2935 44.0384L29.2063 44.8348L23.4987 39.0262L25.9014 36.4291L33.2935 44.0384Z" fill="black"/>
</svg>
