<svg width="50" height="56" viewBox="0 0 50 56" fill="none" xmlns="http://www.w3.org/2000/svg">
<path fill-rule="evenodd" clip-rule="evenodd" d="M41.8282 29.3754C40.7404 29.911 39.6246 30.3878 38.4856 30.8038L17.1914 52.3361L12.367 51.9912L22.7299 41.2639L11.8957 30.3471C10.7289 29.8604 9.59309 29.3022 8.49487 28.6758C8.49487 24.8668 9.46655 22.3308 12.3136 21.9955L11.8812 5.43817L15.9331 5.61793V8.36292L33.8896 7.99854L33.8362 5.56935L38.1115 5.63251L37.8589 22.0198C40.5796 22.5057 41.8282 25.3138 41.8282 29.3754ZM25.5138 38.3877L31.0377 32.6742C27.3099 33.2016 23.5244 33.1721 19.8052 32.5868L25.5138 38.3877ZM16.0254 18.6432L16.0788 27.7333C22.0554 29.1839 28.2718 29.3495 34.3172 28.2191L34.1082 18.2983C29.6337 19.4497 20.704 19.7898 16.0254 18.6432ZM38.3739 51.4422L33.7293 52.3361L27.2434 45.8162L29.9738 42.9011L38.3739 51.4422Z" fill="black"/>
</svg>
