<svg width="51" height="55" viewBox="0 0 51 55" fill="none" xmlns="http://www.w3.org/2000/svg">
<path fill-rule="evenodd" clip-rule="evenodd" d="M26.0133 41.2435C5.41666 41.2435 6.34666 11.5037 25.68 11.5037C44.9467 11.5037 44.8333 41.2435 26.0133 41.2435ZM36.3267 26.3112L33.75 25.3209L33.33 25.9643L34.33 27.0253L35.1033 27.1432L35.4367 28.275L33.0033 29.518L31.3367 26.5841L30.76 27.9045L32.0167 30.6969L33.56 31.1517L31.0733 32.499L27.8333 37.1946L25.08 37.4136L24.4767 34.7188L24.9333 30.7475L21.7767 29.8986L20.7367 27.379L21.2333 24.9538L24.2333 23.7108L27.07 25.3512L28.5667 24.8561L30.7967 25.4658L31.3033 22.5925L28.4333 21.6325L28.4 23.5053L26.5767 23.4211L26.42 21.4405L24.1667 21.9424L24.3367 20.2009L23.3767 19.0759L24.8367 17.7285L27.21 19.0759L27.9533 17.4826L29.8333 16.6742L31.0867 17.2333L32.36 16.974L32.91 15.6266C31 14.2995 28.59 13.5011 25.66 13.5011C24.7297 13.4994 23.8012 13.5851 22.8867 13.7571L23.24 15.8018L19.0067 18.8333L15.29 18.6009C14.9241 19.1186 14.5976 19.6636 14.3133 20.2312L15.0933 27.6047L17.3867 30.5824L15.0333 33.9508C17.13 37.0531 20.7433 39.246 25.9433 39.246C33.43 39.246 37.4933 33.8026 38.0833 27.9247L36.3267 26.3112Z" fill="black"/>
</svg>
