<svg width="44" height="48" viewBox="0 0 44 48" fill="none" xmlns="http://www.w3.org/2000/svg">
<path fill-rule="evenodd" clip-rule="evenodd" d="M23.0081 38C2.59254 38 3.51437 9 22.6777 9C41.775 9 41.6627 38 23.0081 38ZM33.2308 23.4392L30.6768 22.4736L30.2605 23.1009L31.2517 24.1356L32.0182 24.2505L32.3486 25.3542L29.9367 26.5662L28.2847 23.7053L27.7131 24.9929L28.9587 27.7158L30.4885 28.1592L28.0237 29.4731L24.8121 34.0519L22.083 34.2654L21.485 31.6377L21.9376 27.7651L18.8087 26.9374L17.7779 24.4805L18.2702 22.1155L21.2438 20.9035L24.0555 22.5031L25.539 22.0203L27.7494 22.6148L28.2516 19.813L25.4069 18.8769L25.3738 20.7031L23.5665 20.621L23.4112 18.6897L21.1777 19.1791L21.3462 17.4809L20.3947 16.3838L21.8418 15.07L24.1943 16.3838L24.9311 14.8302L26.7946 14.0419L28.0369 14.5872L29.299 14.3342L29.8442 13.0204C27.951 11.7262 25.5622 10.9478 22.6579 10.9478C21.7358 10.9461 20.8155 11.0296 19.909 11.1974L20.2592 13.1912L16.0631 16.1474L12.3791 15.9207C12.0164 16.4255 11.6928 16.957 11.411 17.5105L12.1841 24.7005L14.4573 27.6041L12.1247 30.8888C14.2029 33.9139 17.7845 36.0522 22.9388 36.0522C30.3596 36.0522 34.3872 30.7443 34.972 25.0126L33.2308 23.4392Z" fill="black"/>
</svg>
