<svg width="611" height="68" viewBox="0 0 611 68" fill="none" xmlns="http://www.w3.org/2000/svg">
<mask id="path-1-outside-1_306_31" maskUnits="userSpaceOnUse" x="0.781494" y="0.614685" width="610" height="68" fill="black">
<rect fill="white" x="0.781494" y="0.614685" width="610" height="68"/>
<path d="M7.78149 66V8.34756H50.288V20.5621H20.9732V31.4737H45.6464V43.1996H20.9732V53.8669H50.288V66H7.78149Z"/>
<path d="M59.2453 66L82.0457 8.34756H96.0516L118.608 66H104.357L101.182 57.0427H76.6713L73.4141 66H59.2453ZM80.8242 45.0725H97.0288L89.0486 22.7607L80.8242 45.0725Z"/>
<path d="M150.629 66.6514C146.504 66.6514 142.676 66 139.148 64.6971C135.619 63.34 132.688 61.2499 130.353 58.427C128.073 55.5498 126.662 51.8855 126.119 47.434H139.474C139.908 49.1168 140.695 50.474 141.835 51.5055C143.029 52.5369 144.468 53.2969 146.151 53.7855C147.834 54.2198 149.625 54.4369 151.525 54.4369C152.828 54.4369 154.131 54.3012 155.434 54.0298C156.737 53.7041 157.822 53.1612 158.691 52.4012C159.56 51.6412 159.994 50.5826 159.994 49.2254C159.994 48.194 159.75 47.3797 159.261 46.7825C158.772 46.1311 158.067 45.6154 157.144 45.2353C156.275 44.8011 155.19 44.421 153.887 44.0953C153.072 43.8782 152.231 43.6882 151.362 43.5253C150.494 43.3625 149.652 43.1725 148.838 42.9553C148.024 42.7382 147.209 42.4939 146.395 42.2224C143.952 41.6253 141.618 40.9467 139.392 40.1867C137.166 39.3724 135.185 38.3409 133.448 37.0923C131.765 35.8437 130.435 34.2152 129.458 32.2065C128.48 30.1979 127.992 27.7008 127.992 24.715C127.992 21.8378 128.48 19.3949 129.458 17.3863C130.489 15.3234 131.846 13.6676 133.529 12.4191C135.266 11.1162 137.139 10.139 139.148 9.48758C141.211 8.78185 143.246 8.29327 145.255 8.02183C147.318 7.7504 149.218 7.61469 150.955 7.61469C154.81 7.61469 158.23 8.32041 161.215 9.73186C164.255 11.1433 166.698 13.2334 168.544 16.002C170.444 18.7163 171.584 22.0821 171.964 26.0993H159.18C158.962 24.6878 158.392 23.5207 157.47 22.5978C156.601 21.6749 155.461 20.9692 154.049 20.4806C152.692 19.992 151.118 19.7478 149.327 19.7478C148.241 19.7478 147.182 19.8563 146.151 20.0735C145.174 20.2363 144.305 20.5078 143.545 20.8878C142.839 21.2678 142.242 21.7835 141.754 22.4349C141.319 23.0321 141.102 23.7921 141.102 24.715C141.102 25.6921 141.428 26.5336 142.079 27.2393C142.731 27.8908 143.654 28.4608 144.848 28.9493C146.096 29.4379 147.617 29.9265 149.408 30.4151C150.657 30.8494 151.932 31.2022 153.235 31.4737C154.592 31.6908 155.895 31.9894 157.144 32.3694C159.424 32.9123 161.514 33.5637 163.414 34.3237C165.368 35.0295 167.078 35.9523 168.544 37.0923C170.01 38.1781 171.15 39.6438 171.964 41.4896C172.833 43.281 173.267 45.5611 173.267 48.3297C173.267 51.6955 172.643 54.5455 171.394 56.8798C170.145 59.1599 168.435 61.0328 166.264 62.4985C164.093 63.9642 161.65 65.0228 158.935 65.6743C156.275 66.3257 153.507 66.6514 150.629 66.6514Z"/>
<path d="M203.606 66V44.5839L181.864 8.34756H197.092L210.283 32.4508L223.801 8.34756H238.784L216.879 44.5025V66H203.606Z"/>
<path d="M296.618 66.6514C292.492 66.6514 288.665 66 285.137 64.6971C281.608 63.34 278.676 61.2499 276.342 58.427C274.062 55.5498 272.651 51.8855 272.108 47.434H285.462C285.897 49.1168 286.684 50.474 287.824 51.5055C289.018 52.5369 290.457 53.2969 292.139 53.7855C293.822 54.2198 295.614 54.4369 297.514 54.4369C298.817 54.4369 300.12 54.3012 301.423 54.0298C302.725 53.7041 303.811 53.1612 304.68 52.4012C305.548 51.6412 305.983 50.5826 305.983 49.2254C305.983 48.194 305.738 47.3797 305.25 46.7825C304.761 46.1311 304.055 45.6154 303.133 45.2353C302.264 44.8011 301.178 44.421 299.875 44.0953C299.061 43.8782 298.22 43.6882 297.351 43.5253C296.482 43.3625 295.641 43.1725 294.827 42.9553C294.012 42.7382 293.198 42.4939 292.384 42.2224C289.941 41.6253 287.607 40.9467 285.381 40.1867C283.155 39.3724 281.174 38.3409 279.436 37.0923C277.754 35.8437 276.424 34.2152 275.446 32.2065C274.469 30.1979 273.981 27.7008 273.981 24.715C273.981 21.8378 274.469 19.3949 275.446 17.3863C276.478 15.3234 277.835 13.6676 279.518 12.4191C281.255 11.1162 283.128 10.139 285.137 9.48758C287.199 8.78185 289.235 8.29327 291.244 8.02183C293.307 7.7504 295.207 7.61469 296.944 7.61469C300.798 7.61469 304.218 8.32041 307.204 9.73186C310.244 11.1433 312.687 13.2334 314.533 16.002C316.433 18.7163 317.573 22.0821 317.953 26.0993H305.168C304.951 24.6878 304.381 23.5207 303.458 22.5978C302.59 21.6749 301.45 20.9692 300.038 20.4806C298.681 19.992 297.107 19.7478 295.315 19.7478C294.23 19.7478 293.171 19.8563 292.139 20.0735C291.162 20.2363 290.294 20.5078 289.534 20.8878C288.828 21.2678 288.231 21.7835 287.742 22.4349C287.308 23.0321 287.091 23.7921 287.091 24.715C287.091 25.6921 287.417 26.5336 288.068 27.2393C288.719 27.8908 289.642 28.4608 290.837 28.9493C292.085 29.4379 293.605 29.9265 295.397 30.4151C296.645 30.8494 297.921 31.2022 299.224 31.4737C300.581 31.6908 301.884 31.9894 303.133 32.3694C305.413 32.9123 307.503 33.5637 309.403 34.3237C311.357 35.0295 313.067 35.9523 314.533 37.0923C315.999 38.1781 317.139 39.6438 317.953 41.4896C318.821 43.281 319.256 45.5611 319.256 48.3297C319.256 51.6955 318.631 54.5455 317.383 56.8798C316.134 59.1599 314.424 61.0328 312.253 62.4985C310.081 63.9642 307.638 65.0228 304.924 65.6743C302.264 66.3257 299.495 66.6514 296.618 66.6514Z"/>
<path d="M346.318 66V20.5621H328.974V8.34756H377.018V20.5621H359.51V66H346.318Z"/>
<path d="M414.275 66.6514C408.575 66.6514 403.879 65.62 400.188 63.5571C396.496 61.4942 393.755 58.4541 391.963 54.4369C390.226 50.4197 389.357 45.5339 389.357 39.7795V8.34756H402.549V40.5124C402.549 42.8467 402.902 45.0725 403.608 47.1897C404.313 49.3068 405.535 51.044 407.272 52.4012C409.009 53.7041 411.398 54.3555 414.438 54.3555C417.532 54.3555 419.866 53.6769 421.441 52.3198C423.069 50.9626 424.182 49.2254 424.779 47.1082C425.431 44.9911 425.757 42.7924 425.757 40.5124V8.34756H438.948V39.7795C438.948 45.4796 438.08 50.3383 436.342 54.3555C434.605 58.3727 431.918 61.4399 428.281 63.5571C424.644 65.62 419.975 66.6514 414.275 66.6514Z"/>
<path d="M456.636 66V8.34756H478.785C484.811 8.34756 489.995 9.46043 494.338 11.6862C498.681 13.9119 502.019 17.1691 504.354 21.4578C506.742 25.7464 507.937 31.0665 507.937 37.4181C507.937 43.5525 506.797 48.764 504.517 53.0526C502.237 57.287 498.925 60.517 494.582 62.7428C490.293 64.9143 485.055 66 478.866 66H456.636ZM469.827 53.8669H478.948C482.802 53.8669 485.842 53.1612 488.068 51.7497C490.348 50.3383 491.976 48.384 492.954 45.8868C493.985 43.3896 494.501 40.5124 494.501 37.2552C494.501 34.1066 494.012 31.2837 493.035 28.7865C492.058 26.235 490.402 24.2264 488.068 22.7607C485.788 21.2949 482.612 20.5621 478.54 20.5621H469.827V53.8669Z"/>
<path d="M522.95 66V8.34756H536.142V66H522.95Z"/>
<path d="M579.846 66.6514C573.929 66.6514 568.799 65.43 564.456 62.9871C560.167 60.4899 556.856 57.0427 554.522 52.6455C552.187 48.194 551.02 43.0639 551.02 37.2552C551.02 31.2837 552.214 26.0993 554.603 21.7021C557.046 17.2506 560.439 13.8034 564.782 11.3605C569.125 8.86328 574.255 7.61469 580.172 7.61469C585.981 7.61469 591.029 8.83613 595.318 11.279C599.661 13.7219 603.027 17.142 605.415 21.5392C607.858 25.8821 609.08 31.0122 609.08 36.9295C609.08 42.7382 607.885 47.8954 605.497 52.4012C603.108 56.8527 599.715 60.3542 595.318 62.9057C590.975 65.4028 585.818 66.6514 579.846 66.6514ZM580.091 54.1926C583.782 54.1926 586.768 53.3512 589.048 51.6683C591.328 49.9854 592.984 47.8411 594.015 45.2353C595.047 42.6296 595.562 39.9695 595.562 37.2552C595.562 35.2466 595.264 33.238 594.667 31.2294C594.124 29.2208 593.228 27.375 591.979 25.6921C590.785 24.0093 589.211 22.6521 587.256 21.6206C585.302 20.5892 582.886 20.0735 580.009 20.0735C576.372 20.0735 573.413 20.9149 571.133 22.5978C568.853 24.2264 567.17 26.3436 566.085 28.9493C565.053 31.5551 564.537 34.2966 564.537 37.1738C564.537 40.051 565.08 42.7924 566.166 45.3982C567.252 48.004 568.935 50.1211 571.215 51.7497C573.549 53.3783 576.508 54.1926 580.091 54.1926Z"/>
<path d="M1.78149 60V2.34756H44.288V14.5621H14.9732V25.4737H39.6464V37.1996H14.9732V47.8669H44.288V60H1.78149Z"/>
<path d="M53.2453 60L76.0457 2.34756H90.0516L112.608 60H98.3575L95.1817 51.0427H70.6713L67.4141 60H53.2453ZM74.8242 39.0725H91.0288L83.0486 16.7607L74.8242 39.0725Z"/>
<path d="M144.629 60.6514C140.504 60.6514 136.676 60 133.148 58.6971C129.619 57.34 126.688 55.2499 124.353 52.427C122.073 49.5498 120.662 45.8855 120.119 41.434H133.474C133.908 43.1168 134.695 44.474 135.835 45.5055C137.029 46.5369 138.468 47.2969 140.151 47.7855C141.834 48.2198 143.625 48.4369 145.525 48.4369C146.828 48.4369 148.131 48.3012 149.434 48.0298C150.737 47.7041 151.822 47.1612 152.691 46.4012C153.56 45.6412 153.994 44.5826 153.994 43.2254C153.994 42.194 153.75 41.3797 153.261 40.7825C152.772 40.1311 152.067 39.6154 151.144 39.2353C150.275 38.8011 149.19 38.421 147.887 38.0953C147.072 37.8782 146.231 37.6882 145.362 37.5253C144.494 37.3625 143.652 37.1725 142.838 36.9553C142.024 36.7382 141.209 36.4939 140.395 36.2224C137.952 35.6253 135.618 34.9467 133.392 34.1867C131.166 33.3724 129.185 32.3409 127.448 31.0923C125.765 29.8438 124.435 28.2152 123.458 26.2065C122.48 24.1979 121.992 21.7008 121.992 18.715C121.992 15.8378 122.48 13.3949 123.458 11.3863C124.489 9.32339 125.846 7.66765 127.529 6.41905C129.266 5.11617 131.139 4.13901 133.148 3.48758C135.211 2.78185 137.246 2.29327 139.255 2.02183C141.318 1.7504 143.218 1.61469 144.955 1.61469C148.81 1.61469 152.23 2.32041 155.215 3.73186C158.255 5.14332 160.698 7.23335 162.544 10.002C164.444 12.7163 165.584 16.0821 165.964 20.0993H153.18C152.962 18.6878 152.392 17.5207 151.47 16.5978C150.601 15.6749 149.461 14.9692 148.049 14.4806C146.692 13.992 145.118 13.7478 143.327 13.7478C142.241 13.7478 141.182 13.8563 140.151 14.0735C139.174 14.2363 138.305 14.5078 137.545 14.8878C136.839 15.2678 136.242 15.7835 135.754 16.4349C135.319 17.0321 135.102 17.7921 135.102 18.715C135.102 19.6921 135.428 20.5336 136.079 21.2393C136.731 21.8908 137.654 22.4608 138.848 22.9493C140.096 23.4379 141.617 23.9265 143.408 24.4151C144.657 24.8494 145.932 25.2022 147.235 25.4737C148.592 25.6908 149.895 25.9894 151.144 26.3694C153.424 26.9123 155.514 27.5637 157.414 28.3237C159.368 29.0295 161.078 29.9523 162.544 31.0923C164.01 32.1781 165.15 33.6438 165.964 35.4896C166.833 37.281 167.267 39.5611 167.267 42.3297C167.267 45.6955 166.643 48.5455 165.394 50.8798C164.145 53.1599 162.435 55.0328 160.264 56.4985C158.093 57.9642 155.65 59.0228 152.935 59.6743C150.275 60.3257 147.507 60.6514 144.629 60.6514Z"/>
<path d="M197.606 60V38.5839L175.864 2.34756H191.092L204.283 26.4508L217.801 2.34756H232.784L210.879 38.5025V60H197.606Z"/>
<path d="M290.618 60.6514C286.492 60.6514 282.665 60 279.137 58.6971C275.608 57.34 272.676 55.2499 270.342 52.427C268.062 49.5498 266.651 45.8855 266.108 41.434H279.462C279.897 43.1168 280.684 44.474 281.824 45.5055C283.018 46.5369 284.457 47.2969 286.139 47.7855C287.822 48.2198 289.614 48.4369 291.514 48.4369C292.817 48.4369 294.12 48.3012 295.423 48.0298C296.725 47.7041 297.811 47.1612 298.68 46.4012C299.548 45.6412 299.983 44.5826 299.983 43.2254C299.983 42.194 299.738 41.3797 299.25 40.7825C298.761 40.1311 298.055 39.6154 297.133 39.2353C296.264 38.8011 295.178 38.421 293.875 38.0953C293.061 37.8782 292.22 37.6882 291.351 37.5253C290.482 37.3625 289.641 37.1725 288.827 36.9553C288.012 36.7382 287.198 36.4939 286.384 36.2224C283.941 35.6253 281.607 34.9467 279.381 34.1867C277.155 33.3724 275.174 32.3409 273.436 31.0923C271.754 29.8438 270.424 28.2152 269.446 26.2065C268.469 24.1979 267.981 21.7008 267.981 18.715C267.981 15.8378 268.469 13.3949 269.446 11.3863C270.478 9.32339 271.835 7.66765 273.518 6.41905C275.255 5.11617 277.128 4.13901 279.137 3.48758C281.199 2.78185 283.235 2.29327 285.244 2.02183C287.307 1.7504 289.207 1.61469 290.944 1.61469C294.798 1.61469 298.218 2.32041 301.204 3.73186C304.244 5.14332 306.687 7.23335 308.533 10.002C310.433 12.7163 311.573 16.0821 311.953 20.0993H299.168C298.951 18.6878 298.381 17.5207 297.458 16.5978C296.59 15.6749 295.45 14.9692 294.038 14.4806C292.681 13.992 291.107 13.7478 289.315 13.7478C288.23 13.7478 287.171 13.8563 286.139 14.0735C285.162 14.2363 284.294 14.5078 283.534 14.8878C282.828 15.2678 282.231 15.7835 281.742 16.4349C281.308 17.0321 281.091 17.7921 281.091 18.715C281.091 19.6921 281.417 20.5336 282.068 21.2393C282.719 21.8908 283.642 22.4608 284.837 22.9493C286.085 23.4379 287.605 23.9265 289.397 24.4151C290.645 24.8494 291.921 25.2022 293.224 25.4737C294.581 25.6908 295.884 25.9894 297.133 26.3694C299.413 26.9123 301.503 27.5637 303.403 28.3237C305.357 29.0295 307.067 29.9523 308.533 31.0923C309.999 32.1781 311.139 33.6438 311.953 35.4896C312.821 37.281 313.256 39.5611 313.256 42.3297C313.256 45.6955 312.631 48.5455 311.383 50.8798C310.134 53.1599 308.424 55.0328 306.253 56.4985C304.081 57.9642 301.638 59.0228 298.924 59.6743C296.264 60.3257 293.495 60.6514 290.618 60.6514Z"/>
<path d="M340.318 60V14.5621H322.974V2.34756H371.018V14.5621H353.51V60H340.318Z"/>
<path d="M408.275 60.6514C402.575 60.6514 397.879 59.62 394.188 57.5571C390.496 55.4942 387.755 52.4541 385.963 48.4369C384.226 44.4197 383.357 39.5339 383.357 33.7795V2.34756H396.549V34.5124C396.549 36.8467 396.902 39.0725 397.608 41.1897C398.313 43.3068 399.535 45.044 401.272 46.4012C403.009 47.7041 405.398 48.3555 408.438 48.3555C411.532 48.3555 413.866 47.6769 415.441 46.3198C417.069 44.9626 418.182 43.2254 418.779 41.1082C419.431 38.9911 419.757 36.7924 419.757 34.5124V2.34756H432.948V33.7795C432.948 39.4796 432.08 44.3383 430.342 48.3555C428.605 52.3727 425.918 55.4399 422.281 57.5571C418.644 59.62 413.975 60.6514 408.275 60.6514Z"/>
<path d="M450.636 60V2.34756H472.785C478.811 2.34756 483.995 3.46043 488.338 5.68618C492.681 7.91193 496.019 11.1691 498.354 15.4578C500.742 19.7464 501.937 25.0665 501.937 31.4181C501.937 37.5525 500.797 42.764 498.517 47.0526C496.237 51.287 492.925 54.517 488.582 56.7428C484.293 58.9143 479.055 60 472.866 60H450.636ZM463.827 47.8669H472.948C476.802 47.8669 479.842 47.1612 482.068 45.7497C484.348 44.3383 485.976 42.384 486.954 39.8868C487.985 37.3896 488.501 34.5124 488.501 31.2552C488.501 28.1066 488.012 25.2837 487.035 22.7865C486.058 20.235 484.402 18.2264 482.068 16.7607C479.788 15.2949 476.612 14.5621 472.54 14.5621H463.827V47.8669Z"/>
<path d="M516.95 60V2.34756H530.142V60H516.95Z"/>
<path d="M573.846 60.6514C567.929 60.6514 562.799 59.43 558.456 56.9871C554.167 54.4899 550.856 51.0427 548.522 46.6455C546.187 42.194 545.02 37.0639 545.02 31.2552C545.02 25.2837 546.214 20.0993 548.603 15.7021C551.046 11.2506 554.439 7.80336 558.782 5.36047C563.125 2.86328 568.255 1.61469 574.172 1.61469C579.981 1.61469 585.029 2.83613 589.318 5.27903C593.661 7.72193 597.027 11.142 599.415 15.5392C601.858 19.8821 603.08 25.0122 603.08 30.9295C603.08 36.7382 601.885 41.8954 599.497 46.4012C597.108 50.8527 593.715 54.3542 589.318 56.9057C584.975 59.4028 579.818 60.6514 573.846 60.6514ZM574.091 48.1926C577.782 48.1926 580.768 47.3512 583.048 45.6683C585.328 43.9854 586.984 41.8411 588.015 39.2353C589.047 36.6296 589.562 33.9695 589.562 31.2552C589.562 29.2466 589.264 27.238 588.667 25.2294C588.124 23.2208 587.228 21.375 585.979 19.6921C584.785 18.0093 583.211 16.6521 581.256 15.6206C579.302 14.5892 576.886 14.0735 574.009 14.0735C570.372 14.0735 567.413 14.9149 565.133 16.5978C562.853 18.2264 561.17 20.3436 560.085 22.9493C559.053 25.5551 558.537 28.2966 558.537 31.1738C558.537 34.051 559.08 36.7924 560.166 39.3982C561.252 42.004 562.935 44.1211 565.215 45.7497C567.549 47.3783 570.508 48.1926 574.091 48.1926Z"/>
</mask>
<path d="M7.78149 66V8.34756H50.288V20.5621H20.9732V31.4737H45.6464V43.1996H20.9732V53.8669H50.288V66H7.78149Z" fill="black"/>
<path d="M59.2453 66L82.0457 8.34756H96.0516L118.608 66H104.357L101.182 57.0427H76.6713L73.4141 66H59.2453ZM80.8242 45.0725H97.0288L89.0486 22.7607L80.8242 45.0725Z" fill="black"/>
<path d="M150.629 66.6514C146.504 66.6514 142.676 66 139.148 64.6971C135.619 63.34 132.688 61.2499 130.353 58.427C128.073 55.5498 126.662 51.8855 126.119 47.434H139.474C139.908 49.1168 140.695 50.474 141.835 51.5055C143.029 52.5369 144.468 53.2969 146.151 53.7855C147.834 54.2198 149.625 54.4369 151.525 54.4369C152.828 54.4369 154.131 54.3012 155.434 54.0298C156.737 53.7041 157.822 53.1612 158.691 52.4012C159.56 51.6412 159.994 50.5826 159.994 49.2254C159.994 48.194 159.75 47.3797 159.261 46.7825C158.772 46.1311 158.067 45.6154 157.144 45.2353C156.275 44.8011 155.19 44.421 153.887 44.0953C153.072 43.8782 152.231 43.6882 151.362 43.5253C150.494 43.3625 149.652 43.1725 148.838 42.9553C148.024 42.7382 147.209 42.4939 146.395 42.2224C143.952 41.6253 141.618 40.9467 139.392 40.1867C137.166 39.3724 135.185 38.3409 133.448 37.0923C131.765 35.8437 130.435 34.2152 129.458 32.2065C128.48 30.1979 127.992 27.7008 127.992 24.715C127.992 21.8378 128.48 19.3949 129.458 17.3863C130.489 15.3234 131.846 13.6676 133.529 12.4191C135.266 11.1162 137.139 10.139 139.148 9.48758C141.211 8.78185 143.246 8.29327 145.255 8.02183C147.318 7.7504 149.218 7.61469 150.955 7.61469C154.81 7.61469 158.23 8.32041 161.215 9.73186C164.255 11.1433 166.698 13.2334 168.544 16.002C170.444 18.7163 171.584 22.0821 171.964 26.0993H159.18C158.962 24.6878 158.392 23.5207 157.47 22.5978C156.601 21.6749 155.461 20.9692 154.049 20.4806C152.692 19.992 151.118 19.7478 149.327 19.7478C148.241 19.7478 147.182 19.8563 146.151 20.0735C145.174 20.2363 144.305 20.5078 143.545 20.8878C142.839 21.2678 142.242 21.7835 141.754 22.4349C141.319 23.0321 141.102 23.7921 141.102 24.715C141.102 25.6921 141.428 26.5336 142.079 27.2393C142.731 27.8908 143.654 28.4608 144.848 28.9493C146.096 29.4379 147.617 29.9265 149.408 30.4151C150.657 30.8494 151.932 31.2022 153.235 31.4737C154.592 31.6908 155.895 31.9894 157.144 32.3694C159.424 32.9123 161.514 33.5637 163.414 34.3237C165.368 35.0295 167.078 35.9523 168.544 37.0923C170.01 38.1781 171.15 39.6438 171.964 41.4896C172.833 43.281 173.267 45.5611 173.267 48.3297C173.267 51.6955 172.643 54.5455 171.394 56.8798C170.145 59.1599 168.435 61.0328 166.264 62.4985C164.093 63.9642 161.65 65.0228 158.935 65.6743C156.275 66.3257 153.507 66.6514 150.629 66.6514Z" fill="black"/>
<path d="M203.606 66V44.5839L181.864 8.34756H197.092L210.283 32.4508L223.801 8.34756H238.784L216.879 44.5025V66H203.606Z" fill="black"/>
<path d="M296.618 66.6514C292.492 66.6514 288.665 66 285.137 64.6971C281.608 63.34 278.676 61.2499 276.342 58.427C274.062 55.5498 272.651 51.8855 272.108 47.434H285.462C285.897 49.1168 286.684 50.474 287.824 51.5055C289.018 52.5369 290.457 53.2969 292.139 53.7855C293.822 54.2198 295.614 54.4369 297.514 54.4369C298.817 54.4369 300.12 54.3012 301.423 54.0298C302.725 53.7041 303.811 53.1612 304.68 52.4012C305.548 51.6412 305.983 50.5826 305.983 49.2254C305.983 48.194 305.738 47.3797 305.25 46.7825C304.761 46.1311 304.055 45.6154 303.133 45.2353C302.264 44.8011 301.178 44.421 299.875 44.0953C299.061 43.8782 298.22 43.6882 297.351 43.5253C296.482 43.3625 295.641 43.1725 294.827 42.9553C294.012 42.7382 293.198 42.4939 292.384 42.2224C289.941 41.6253 287.607 40.9467 285.381 40.1867C283.155 39.3724 281.174 38.3409 279.436 37.0923C277.754 35.8437 276.424 34.2152 275.446 32.2065C274.469 30.1979 273.981 27.7008 273.981 24.715C273.981 21.8378 274.469 19.3949 275.446 17.3863C276.478 15.3234 277.835 13.6676 279.518 12.4191C281.255 11.1162 283.128 10.139 285.137 9.48758C287.199 8.78185 289.235 8.29327 291.244 8.02183C293.307 7.7504 295.207 7.61469 296.944 7.61469C300.798 7.61469 304.218 8.32041 307.204 9.73186C310.244 11.1433 312.687 13.2334 314.533 16.002C316.433 18.7163 317.573 22.0821 317.953 26.0993H305.168C304.951 24.6878 304.381 23.5207 303.458 22.5978C302.59 21.6749 301.45 20.9692 300.038 20.4806C298.681 19.992 297.107 19.7478 295.315 19.7478C294.23 19.7478 293.171 19.8563 292.139 20.0735C291.162 20.2363 290.294 20.5078 289.534 20.8878C288.828 21.2678 288.231 21.7835 287.742 22.4349C287.308 23.0321 287.091 23.7921 287.091 24.715C287.091 25.6921 287.417 26.5336 288.068 27.2393C288.719 27.8908 289.642 28.4608 290.837 28.9493C292.085 29.4379 293.605 29.9265 295.397 30.4151C296.645 30.8494 297.921 31.2022 299.224 31.4737C300.581 31.6908 301.884 31.9894 303.133 32.3694C305.413 32.9123 307.503 33.5637 309.403 34.3237C311.357 35.0295 313.067 35.9523 314.533 37.0923C315.999 38.1781 317.139 39.6438 317.953 41.4896C318.821 43.281 319.256 45.5611 319.256 48.3297C319.256 51.6955 318.631 54.5455 317.383 56.8798C316.134 59.1599 314.424 61.0328 312.253 62.4985C310.081 63.9642 307.638 65.0228 304.924 65.6743C302.264 66.3257 299.495 66.6514 296.618 66.6514Z" fill="black"/>
<path d="M346.318 66V20.5621H328.974V8.34756H377.018V20.5621H359.51V66H346.318Z" fill="black"/>
<path d="M414.275 66.6514C408.575 66.6514 403.879 65.62 400.188 63.5571C396.496 61.4942 393.755 58.4541 391.963 54.4369C390.226 50.4197 389.357 45.5339 389.357 39.7795V8.34756H402.549V40.5124C402.549 42.8467 402.902 45.0725 403.608 47.1897C404.313 49.3068 405.535 51.044 407.272 52.4012C409.009 53.7041 411.398 54.3555 414.438 54.3555C417.532 54.3555 419.866 53.6769 421.441 52.3198C423.069 50.9626 424.182 49.2254 424.779 47.1082C425.431 44.9911 425.757 42.7924 425.757 40.5124V8.34756H438.948V39.7795C438.948 45.4796 438.08 50.3383 436.342 54.3555C434.605 58.3727 431.918 61.4399 428.281 63.5571C424.644 65.62 419.975 66.6514 414.275 66.6514Z" fill="black"/>
<path d="M456.636 66V8.34756H478.785C484.811 8.34756 489.995 9.46043 494.338 11.6862C498.681 13.9119 502.019 17.1691 504.354 21.4578C506.742 25.7464 507.937 31.0665 507.937 37.4181C507.937 43.5525 506.797 48.764 504.517 53.0526C502.237 57.287 498.925 60.517 494.582 62.7428C490.293 64.9143 485.055 66 478.866 66H456.636ZM469.827 53.8669H478.948C482.802 53.8669 485.842 53.1612 488.068 51.7497C490.348 50.3383 491.976 48.384 492.954 45.8868C493.985 43.3896 494.501 40.5124 494.501 37.2552C494.501 34.1066 494.012 31.2837 493.035 28.7865C492.058 26.235 490.402 24.2264 488.068 22.7607C485.788 21.2949 482.612 20.5621 478.54 20.5621H469.827V53.8669Z" fill="black"/>
<path d="M522.95 66V8.34756H536.142V66H522.95Z" fill="black"/>
<path d="M579.846 66.6514C573.929 66.6514 568.799 65.43 564.456 62.9871C560.167 60.4899 556.856 57.0427 554.522 52.6455C552.187 48.194 551.02 43.0639 551.02 37.2552C551.02 31.2837 552.214 26.0993 554.603 21.7021C557.046 17.2506 560.439 13.8034 564.782 11.3605C569.125 8.86328 574.255 7.61469 580.172 7.61469C585.981 7.61469 591.029 8.83613 595.318 11.279C599.661 13.7219 603.027 17.142 605.415 21.5392C607.858 25.8821 609.08 31.0122 609.08 36.9295C609.08 42.7382 607.885 47.8954 605.497 52.4012C603.108 56.8527 599.715 60.3542 595.318 62.9057C590.975 65.4028 585.818 66.6514 579.846 66.6514ZM580.091 54.1926C583.782 54.1926 586.768 53.3512 589.048 51.6683C591.328 49.9854 592.984 47.8411 594.015 45.2353C595.047 42.6296 595.562 39.9695 595.562 37.2552C595.562 35.2466 595.264 33.238 594.667 31.2294C594.124 29.2208 593.228 27.375 591.979 25.6921C590.785 24.0093 589.211 22.6521 587.256 21.6206C585.302 20.5892 582.886 20.0735 580.009 20.0735C576.372 20.0735 573.413 20.9149 571.133 22.5978C568.853 24.2264 567.17 26.3436 566.085 28.9493C565.053 31.5551 564.537 34.2966 564.537 37.1738C564.537 40.051 565.08 42.7924 566.166 45.3982C567.252 48.004 568.935 50.1211 571.215 51.7497C573.549 53.3783 576.508 54.1926 580.091 54.1926Z" fill="black"/>
<path d="M1.78149 60V2.34756H44.288V14.5621H14.9732V25.4737H39.6464V37.1996H14.9732V47.8669H44.288V60H1.78149Z" fill="white"/>
<path d="M53.2453 60L76.0457 2.34756H90.0516L112.608 60H98.3575L95.1817 51.0427H70.6713L67.4141 60H53.2453ZM74.8242 39.0725H91.0288L83.0486 16.7607L74.8242 39.0725Z" fill="white"/>
<path d="M144.629 60.6514C140.504 60.6514 136.676 60 133.148 58.6971C129.619 57.34 126.688 55.2499 124.353 52.427C122.073 49.5498 120.662 45.8855 120.119 41.434H133.474C133.908 43.1168 134.695 44.474 135.835 45.5055C137.029 46.5369 138.468 47.2969 140.151 47.7855C141.834 48.2198 143.625 48.4369 145.525 48.4369C146.828 48.4369 148.131 48.3012 149.434 48.0298C150.737 47.7041 151.822 47.1612 152.691 46.4012C153.56 45.6412 153.994 44.5826 153.994 43.2254C153.994 42.194 153.75 41.3797 153.261 40.7825C152.772 40.1311 152.067 39.6154 151.144 39.2353C150.275 38.8011 149.19 38.421 147.887 38.0953C147.072 37.8782 146.231 37.6882 145.362 37.5253C144.494 37.3625 143.652 37.1725 142.838 36.9553C142.024 36.7382 141.209 36.4939 140.395 36.2224C137.952 35.6253 135.618 34.9467 133.392 34.1867C131.166 33.3724 129.185 32.3409 127.448 31.0923C125.765 29.8438 124.435 28.2152 123.458 26.2065C122.48 24.1979 121.992 21.7008 121.992 18.715C121.992 15.8378 122.48 13.3949 123.458 11.3863C124.489 9.32339 125.846 7.66765 127.529 6.41905C129.266 5.11617 131.139 4.13901 133.148 3.48758C135.211 2.78185 137.246 2.29327 139.255 2.02183C141.318 1.7504 143.218 1.61469 144.955 1.61469C148.81 1.61469 152.23 2.32041 155.215 3.73186C158.255 5.14332 160.698 7.23335 162.544 10.002C164.444 12.7163 165.584 16.0821 165.964 20.0993H153.18C152.962 18.6878 152.392 17.5207 151.47 16.5978C150.601 15.6749 149.461 14.9692 148.049 14.4806C146.692 13.992 145.118 13.7478 143.327 13.7478C142.241 13.7478 141.182 13.8563 140.151 14.0735C139.174 14.2363 138.305 14.5078 137.545 14.8878C136.839 15.2678 136.242 15.7835 135.754 16.4349C135.319 17.0321 135.102 17.7921 135.102 18.715C135.102 19.6921 135.428 20.5336 136.079 21.2393C136.731 21.8908 137.654 22.4608 138.848 22.9493C140.096 23.4379 141.617 23.9265 143.408 24.4151C144.657 24.8494 145.932 25.2022 147.235 25.4737C148.592 25.6908 149.895 25.9894 151.144 26.3694C153.424 26.9123 155.514 27.5637 157.414 28.3237C159.368 29.0295 161.078 29.9523 162.544 31.0923C164.01 32.1781 165.15 33.6438 165.964 35.4896C166.833 37.281 167.267 39.5611 167.267 42.3297C167.267 45.6955 166.643 48.5455 165.394 50.8798C164.145 53.1599 162.435 55.0328 160.264 56.4985C158.093 57.9642 155.65 59.0228 152.935 59.6743C150.275 60.3257 147.507 60.6514 144.629 60.6514Z" fill="white"/>
<path d="M197.606 60V38.5839L175.864 2.34756H191.092L204.283 26.4508L217.801 2.34756H232.784L210.879 38.5025V60H197.606Z" fill="white"/>
<path d="M290.618 60.6514C286.492 60.6514 282.665 60 279.137 58.6971C275.608 57.34 272.676 55.2499 270.342 52.427C268.062 49.5498 266.651 45.8855 266.108 41.434H279.462C279.897 43.1168 280.684 44.474 281.824 45.5055C283.018 46.5369 284.457 47.2969 286.139 47.7855C287.822 48.2198 289.614 48.4369 291.514 48.4369C292.817 48.4369 294.12 48.3012 295.423 48.0298C296.725 47.7041 297.811 47.1612 298.68 46.4012C299.548 45.6412 299.983 44.5826 299.983 43.2254C299.983 42.194 299.738 41.3797 299.25 40.7825C298.761 40.1311 298.055 39.6154 297.133 39.2353C296.264 38.8011 295.178 38.421 293.875 38.0953C293.061 37.8782 292.22 37.6882 291.351 37.5253C290.482 37.3625 289.641 37.1725 288.827 36.9553C288.012 36.7382 287.198 36.4939 286.384 36.2224C283.941 35.6253 281.607 34.9467 279.381 34.1867C277.155 33.3724 275.174 32.3409 273.436 31.0923C271.754 29.8438 270.424 28.2152 269.446 26.2065C268.469 24.1979 267.981 21.7008 267.981 18.715C267.981 15.8378 268.469 13.3949 269.446 11.3863C270.478 9.32339 271.835 7.66765 273.518 6.41905C275.255 5.11617 277.128 4.13901 279.137 3.48758C281.199 2.78185 283.235 2.29327 285.244 2.02183C287.307 1.7504 289.207 1.61469 290.944 1.61469C294.798 1.61469 298.218 2.32041 301.204 3.73186C304.244 5.14332 306.687 7.23335 308.533 10.002C310.433 12.7163 311.573 16.0821 311.953 20.0993H299.168C298.951 18.6878 298.381 17.5207 297.458 16.5978C296.59 15.6749 295.45 14.9692 294.038 14.4806C292.681 13.992 291.107 13.7478 289.315 13.7478C288.23 13.7478 287.171 13.8563 286.139 14.0735C285.162 14.2363 284.294 14.5078 283.534 14.8878C282.828 15.2678 282.231 15.7835 281.742 16.4349C281.308 17.0321 281.091 17.7921 281.091 18.715C281.091 19.6921 281.417 20.5336 282.068 21.2393C282.719 21.8908 283.642 22.4608 284.837 22.9493C286.085 23.4379 287.605 23.9265 289.397 24.4151C290.645 24.8494 291.921 25.2022 293.224 25.4737C294.581 25.6908 295.884 25.9894 297.133 26.3694C299.413 26.9123 301.503 27.5637 303.403 28.3237C305.357 29.0295 307.067 29.9523 308.533 31.0923C309.999 32.1781 311.139 33.6438 311.953 35.4896C312.821 37.281 313.256 39.5611 313.256 42.3297C313.256 45.6955 312.631 48.5455 311.383 50.8798C310.134 53.1599 308.424 55.0328 306.253 56.4985C304.081 57.9642 301.638 59.0228 298.924 59.6743C296.264 60.3257 293.495 60.6514 290.618 60.6514Z" fill="white"/>
<path d="M340.318 60V14.5621H322.974V2.34756H371.018V14.5621H353.51V60H340.318Z" fill="white"/>
<path d="M408.275 60.6514C402.575 60.6514 397.879 59.62 394.188 57.5571C390.496 55.4942 387.755 52.4541 385.963 48.4369C384.226 44.4197 383.357 39.5339 383.357 33.7795V2.34756H396.549V34.5124C396.549 36.8467 396.902 39.0725 397.608 41.1897C398.313 43.3068 399.535 45.044 401.272 46.4012C403.009 47.7041 405.398 48.3555 408.438 48.3555C411.532 48.3555 413.866 47.6769 415.441 46.3198C417.069 44.9626 418.182 43.2254 418.779 41.1082C419.431 38.9911 419.757 36.7924 419.757 34.5124V2.34756H432.948V33.7795C432.948 39.4796 432.08 44.3383 430.342 48.3555C428.605 52.3727 425.918 55.4399 422.281 57.5571C418.644 59.62 413.975 60.6514 408.275 60.6514Z" fill="white"/>
<path d="M450.636 60V2.34756H472.785C478.811 2.34756 483.995 3.46043 488.338 5.68618C492.681 7.91193 496.019 11.1691 498.354 15.4578C500.742 19.7464 501.937 25.0665 501.937 31.4181C501.937 37.5525 500.797 42.764 498.517 47.0526C496.237 51.287 492.925 54.517 488.582 56.7428C484.293 58.9143 479.055 60 472.866 60H450.636ZM463.827 47.8669H472.948C476.802 47.8669 479.842 47.1612 482.068 45.7497C484.348 44.3383 485.976 42.384 486.954 39.8868C487.985 37.3896 488.501 34.5124 488.501 31.2552C488.501 28.1066 488.012 25.2837 487.035 22.7865C486.058 20.235 484.402 18.2264 482.068 16.7607C479.788 15.2949 476.612 14.5621 472.54 14.5621H463.827V47.8669Z" fill="white"/>
<path d="M516.95 60V2.34756H530.142V60H516.95Z" fill="white"/>
<path d="M573.846 60.6514C567.929 60.6514 562.799 59.43 558.456 56.9871C554.167 54.4899 550.856 51.0427 548.522 46.6455C546.187 42.194 545.02 37.0639 545.02 31.2552C545.02 25.2837 546.214 20.0993 548.603 15.7021C551.046 11.2506 554.439 7.80336 558.782 5.36047C563.125 2.86328 568.255 1.61469 574.172 1.61469C579.981 1.61469 585.029 2.83613 589.318 5.27903C593.661 7.72193 597.027 11.142 599.415 15.5392C601.858 19.8821 603.08 25.0122 603.08 30.9295C603.08 36.7382 601.885 41.8954 599.497 46.4012C597.108 50.8527 593.715 54.3542 589.318 56.9057C584.975 59.4028 579.818 60.6514 573.846 60.6514ZM574.091 48.1926C577.782 48.1926 580.768 47.3512 583.048 45.6683C585.328 43.9854 586.984 41.8411 588.015 39.2353C589.047 36.6296 589.562 33.9695 589.562 31.2552C589.562 29.2466 589.264 27.238 588.667 25.2294C588.124 23.2208 587.228 21.375 585.979 19.6921C584.785 18.0093 583.211 16.6521 581.256 15.6206C579.302 14.5892 576.886 14.0735 574.009 14.0735C570.372 14.0735 567.413 14.9149 565.133 16.5978C562.853 18.2264 561.17 20.3436 560.085 22.9493C559.053 25.5551 558.537 28.2966 558.537 31.1738C558.537 34.051 559.08 36.7924 560.166 39.3982C561.252 42.004 562.935 44.1211 565.215 45.7497C567.549 47.3783 570.508 48.1926 574.091 48.1926Z" fill="white"/>
<path d="M7.78149 66V8.34756H50.288V20.5621H20.9732V31.4737H45.6464V43.1996H20.9732V53.8669H50.288V66H7.78149Z" stroke="black" stroke-width="2" mask="url(#path-1-outside-1_306_31)"/>
<path d="M59.2453 66L82.0457 8.34756H96.0516L118.608 66H104.357L101.182 57.0427H76.6713L73.4141 66H59.2453ZM80.8242 45.0725H97.0288L89.0486 22.7607L80.8242 45.0725Z" stroke="black" stroke-width="2" mask="url(#path-1-outside-1_306_31)"/>
<path d="M150.629 66.6514C146.504 66.6514 142.676 66 139.148 64.6971C135.619 63.34 132.688 61.2499 130.353 58.427C128.073 55.5498 126.662 51.8855 126.119 47.434H139.474C139.908 49.1168 140.695 50.474 141.835 51.5055C143.029 52.5369 144.468 53.2969 146.151 53.7855C147.834 54.2198 149.625 54.4369 151.525 54.4369C152.828 54.4369 154.131 54.3012 155.434 54.0298C156.737 53.7041 157.822 53.1612 158.691 52.4012C159.56 51.6412 159.994 50.5826 159.994 49.2254C159.994 48.194 159.75 47.3797 159.261 46.7825C158.772 46.1311 158.067 45.6154 157.144 45.2353C156.275 44.8011 155.19 44.421 153.887 44.0953C153.072 43.8782 152.231 43.6882 151.362 43.5253C150.494 43.3625 149.652 43.1725 148.838 42.9553C148.024 42.7382 147.209 42.4939 146.395 42.2224C143.952 41.6253 141.618 40.9467 139.392 40.1867C137.166 39.3724 135.185 38.3409 133.448 37.0923C131.765 35.8437 130.435 34.2152 129.458 32.2065C128.48 30.1979 127.992 27.7008 127.992 24.715C127.992 21.8378 128.48 19.3949 129.458 17.3863C130.489 15.3234 131.846 13.6676 133.529 12.4191C135.266 11.1162 137.139 10.139 139.148 9.48758C141.211 8.78185 143.246 8.29327 145.255 8.02183C147.318 7.7504 149.218 7.61469 150.955 7.61469C154.81 7.61469 158.23 8.32041 161.215 9.73186C164.255 11.1433 166.698 13.2334 168.544 16.002C170.444 18.7163 171.584 22.0821 171.964 26.0993H159.18C158.962 24.6878 158.392 23.5207 157.47 22.5978C156.601 21.6749 155.461 20.9692 154.049 20.4806C152.692 19.992 151.118 19.7478 149.327 19.7478C148.241 19.7478 147.182 19.8563 146.151 20.0735C145.174 20.2363 144.305 20.5078 143.545 20.8878C142.839 21.2678 142.242 21.7835 141.754 22.4349C141.319 23.0321 141.102 23.7921 141.102 24.715C141.102 25.6921 141.428 26.5336 142.079 27.2393C142.731 27.8908 143.654 28.4608 144.848 28.9493C146.096 29.4379 147.617 29.9265 149.408 30.4151C150.657 30.8494 151.932 31.2022 153.235 31.4737C154.592 31.6908 155.895 31.9894 157.144 32.3694C159.424 32.9123 161.514 33.5637 163.414 34.3237C165.368 35.0295 167.078 35.9523 168.544 37.0923C170.01 38.1781 171.15 39.6438 171.964 41.4896C172.833 43.281 173.267 45.5611 173.267 48.3297C173.267 51.6955 172.643 54.5455 171.394 56.8798C170.145 59.1599 168.435 61.0328 166.264 62.4985C164.093 63.9642 161.65 65.0228 158.935 65.6743C156.275 66.3257 153.507 66.6514 150.629 66.6514Z" stroke="black" stroke-width="2" mask="url(#path-1-outside-1_306_31)"/>
<path d="M203.606 66V44.5839L181.864 8.34756H197.092L210.283 32.4508L223.801 8.34756H238.784L216.879 44.5025V66H203.606Z" stroke="black" stroke-width="2" mask="url(#path-1-outside-1_306_31)"/>
<path d="M296.618 66.6514C292.492 66.6514 288.665 66 285.137 64.6971C281.608 63.34 278.676 61.2499 276.342 58.427C274.062 55.5498 272.651 51.8855 272.108 47.434H285.462C285.897 49.1168 286.684 50.474 287.824 51.5055C289.018 52.5369 290.457 53.2969 292.139 53.7855C293.822 54.2198 295.614 54.4369 297.514 54.4369C298.817 54.4369 300.12 54.3012 301.423 54.0298C302.725 53.7041 303.811 53.1612 304.68 52.4012C305.548 51.6412 305.983 50.5826 305.983 49.2254C305.983 48.194 305.738 47.3797 305.25 46.7825C304.761 46.1311 304.055 45.6154 303.133 45.2353C302.264 44.8011 301.178 44.421 299.875 44.0953C299.061 43.8782 298.22 43.6882 297.351 43.5253C296.482 43.3625 295.641 43.1725 294.827 42.9553C294.012 42.7382 293.198 42.4939 292.384 42.2224C289.941 41.6253 287.607 40.9467 285.381 40.1867C283.155 39.3724 281.174 38.3409 279.436 37.0923C277.754 35.8437 276.424 34.2152 275.446 32.2065C274.469 30.1979 273.981 27.7008 273.981 24.715C273.981 21.8378 274.469 19.3949 275.446 17.3863C276.478 15.3234 277.835 13.6676 279.518 12.4191C281.255 11.1162 283.128 10.139 285.137 9.48758C287.199 8.78185 289.235 8.29327 291.244 8.02183C293.307 7.7504 295.207 7.61469 296.944 7.61469C300.798 7.61469 304.218 8.32041 307.204 9.73186C310.244 11.1433 312.687 13.2334 314.533 16.002C316.433 18.7163 317.573 22.0821 317.953 26.0993H305.168C304.951 24.6878 304.381 23.5207 303.458 22.5978C302.59 21.6749 301.45 20.9692 300.038 20.4806C298.681 19.992 297.107 19.7478 295.315 19.7478C294.23 19.7478 293.171 19.8563 292.139 20.0735C291.162 20.2363 290.294 20.5078 289.534 20.8878C288.828 21.2678 288.231 21.7835 287.742 22.4349C287.308 23.0321 287.091 23.7921 287.091 24.715C287.091 25.6921 287.417 26.5336 288.068 27.2393C288.719 27.8908 289.642 28.4608 290.837 28.9493C292.085 29.4379 293.605 29.9265 295.397 30.4151C296.645 30.8494 297.921 31.2022 299.224 31.4737C300.581 31.6908 301.884 31.9894 303.133 32.3694C305.413 32.9123 307.503 33.5637 309.403 34.3237C311.357 35.0295 313.067 35.9523 314.533 37.0923C315.999 38.1781 317.139 39.6438 317.953 41.4896C318.821 43.281 319.256 45.5611 319.256 48.3297C319.256 51.6955 318.631 54.5455 317.383 56.8798C316.134 59.1599 314.424 61.0328 312.253 62.4985C310.081 63.9642 307.638 65.0228 304.924 65.6743C302.264 66.3257 299.495 66.6514 296.618 66.6514Z" stroke="black" stroke-width="2" mask="url(#path-1-outside-1_306_31)"/>
<path d="M346.318 66V20.5621H328.974V8.34756H377.018V20.5621H359.51V66H346.318Z" stroke="black" stroke-width="2" mask="url(#path-1-outside-1_306_31)"/>
<path d="M414.275 66.6514C408.575 66.6514 403.879 65.62 400.188 63.5571C396.496 61.4942 393.755 58.4541 391.963 54.4369C390.226 50.4197 389.357 45.5339 389.357 39.7795V8.34756H402.549V40.5124C402.549 42.8467 402.902 45.0725 403.608 47.1897C404.313 49.3068 405.535 51.044 407.272 52.4012C409.009 53.7041 411.398 54.3555 414.438 54.3555C417.532 54.3555 419.866 53.6769 421.441 52.3198C423.069 50.9626 424.182 49.2254 424.779 47.1082C425.431 44.9911 425.757 42.7924 425.757 40.5124V8.34756H438.948V39.7795C438.948 45.4796 438.08 50.3383 436.342 54.3555C434.605 58.3727 431.918 61.4399 428.281 63.5571C424.644 65.62 419.975 66.6514 414.275 66.6514Z" stroke="black" stroke-width="2" mask="url(#path-1-outside-1_306_31)"/>
<path d="M456.636 66V8.34756H478.785C484.811 8.34756 489.995 9.46043 494.338 11.6862C498.681 13.9119 502.019 17.1691 504.354 21.4578C506.742 25.7464 507.937 31.0665 507.937 37.4181C507.937 43.5525 506.797 48.764 504.517 53.0526C502.237 57.287 498.925 60.517 494.582 62.7428C490.293 64.9143 485.055 66 478.866 66H456.636ZM469.827 53.8669H478.948C482.802 53.8669 485.842 53.1612 488.068 51.7497C490.348 50.3383 491.976 48.384 492.954 45.8868C493.985 43.3896 494.501 40.5124 494.501 37.2552C494.501 34.1066 494.012 31.2837 493.035 28.7865C492.058 26.235 490.402 24.2264 488.068 22.7607C485.788 21.2949 482.612 20.5621 478.54 20.5621H469.827V53.8669Z" stroke="black" stroke-width="2" mask="url(#path-1-outside-1_306_31)"/>
<path d="M522.95 66V8.34756H536.142V66H522.95Z" stroke="black" stroke-width="2" mask="url(#path-1-outside-1_306_31)"/>
<path d="M579.846 66.6514C573.929 66.6514 568.799 65.43 564.456 62.9871C560.167 60.4899 556.856 57.0427 554.522 52.6455C552.187 48.194 551.02 43.0639 551.02 37.2552C551.02 31.2837 552.214 26.0993 554.603 21.7021C557.046 17.2506 560.439 13.8034 564.782 11.3605C569.125 8.86328 574.255 7.61469 580.172 7.61469C585.981 7.61469 591.029 8.83613 595.318 11.279C599.661 13.7219 603.027 17.142 605.415 21.5392C607.858 25.8821 609.08 31.0122 609.08 36.9295C609.08 42.7382 607.885 47.8954 605.497 52.4012C603.108 56.8527 599.715 60.3542 595.318 62.9057C590.975 65.4028 585.818 66.6514 579.846 66.6514ZM580.091 54.1926C583.782 54.1926 586.768 53.3512 589.048 51.6683C591.328 49.9854 592.984 47.8411 594.015 45.2353C595.047 42.6296 595.562 39.9695 595.562 37.2552C595.562 35.2466 595.264 33.238 594.667 31.2294C594.124 29.2208 593.228 27.375 591.979 25.6921C590.785 24.0093 589.211 22.6521 587.256 21.6206C585.302 20.5892 582.886 20.0735 580.009 20.0735C576.372 20.0735 573.413 20.9149 571.133 22.5978C568.853 24.2264 567.17 26.3436 566.085 28.9493C565.053 31.5551 564.537 34.2966 564.537 37.1738C564.537 40.051 565.08 42.7924 566.166 45.3982C567.252 48.004 568.935 50.1211 571.215 51.7497C573.549 53.3783 576.508 54.1926 580.091 54.1926Z" stroke="black" stroke-width="2" mask="url(#path-1-outside-1_306_31)"/>
<path d="M1.78149 60V2.34756H44.288V14.5621H14.9732V25.4737H39.6464V37.1996H14.9732V47.8669H44.288V60H1.78149Z" stroke="black" stroke-width="2" mask="url(#path-1-outside-1_306_31)"/>
<path d="M53.2453 60L76.0457 2.34756H90.0516L112.608 60H98.3575L95.1817 51.0427H70.6713L67.4141 60H53.2453ZM74.8242 39.0725H91.0288L83.0486 16.7607L74.8242 39.0725Z" stroke="black" stroke-width="2" mask="url(#path-1-outside-1_306_31)"/>
<path d="M144.629 60.6514C140.504 60.6514 136.676 60 133.148 58.6971C129.619 57.34 126.688 55.2499 124.353 52.427C122.073 49.5498 120.662 45.8855 120.119 41.434H133.474C133.908 43.1168 134.695 44.474 135.835 45.5055C137.029 46.5369 138.468 47.2969 140.151 47.7855C141.834 48.2198 143.625 48.4369 145.525 48.4369C146.828 48.4369 148.131 48.3012 149.434 48.0298C150.737 47.7041 151.822 47.1612 152.691 46.4012C153.56 45.6412 153.994 44.5826 153.994 43.2254C153.994 42.194 153.75 41.3797 153.261 40.7825C152.772 40.1311 152.067 39.6154 151.144 39.2353C150.275 38.8011 149.19 38.421 147.887 38.0953C147.072 37.8782 146.231 37.6882 145.362 37.5253C144.494 37.3625 143.652 37.1725 142.838 36.9553C142.024 36.7382 141.209 36.4939 140.395 36.2224C137.952 35.6253 135.618 34.9467 133.392 34.1867C131.166 33.3724 129.185 32.3409 127.448 31.0923C125.765 29.8438 124.435 28.2152 123.458 26.2065C122.48 24.1979 121.992 21.7008 121.992 18.715C121.992 15.8378 122.48 13.3949 123.458 11.3863C124.489 9.32339 125.846 7.66765 127.529 6.41905C129.266 5.11617 131.139 4.13901 133.148 3.48758C135.211 2.78185 137.246 2.29327 139.255 2.02183C141.318 1.7504 143.218 1.61469 144.955 1.61469C148.81 1.61469 152.23 2.32041 155.215 3.73186C158.255 5.14332 160.698 7.23335 162.544 10.002C164.444 12.7163 165.584 16.0821 165.964 20.0993H153.18C152.962 18.6878 152.392 17.5207 151.47 16.5978C150.601 15.6749 149.461 14.9692 148.049 14.4806C146.692 13.992 145.118 13.7478 143.327 13.7478C142.241 13.7478 141.182 13.8563 140.151 14.0735C139.174 14.2363 138.305 14.5078 137.545 14.8878C136.839 15.2678 136.242 15.7835 135.754 16.4349C135.319 17.0321 135.102 17.7921 135.102 18.715C135.102 19.6921 135.428 20.5336 136.079 21.2393C136.731 21.8908 137.654 22.4608 138.848 22.9493C140.096 23.4379 141.617 23.9265 143.408 24.4151C144.657 24.8494 145.932 25.2022 147.235 25.4737C148.592 25.6908 149.895 25.9894 151.144 26.3694C153.424 26.9123 155.514 27.5637 157.414 28.3237C159.368 29.0295 161.078 29.9523 162.544 31.0923C164.01 32.1781 165.15 33.6438 165.964 35.4896C166.833 37.281 167.267 39.5611 167.267 42.3297C167.267 45.6955 166.643 48.5455 165.394 50.8798C164.145 53.1599 162.435 55.0328 160.264 56.4985C158.093 57.9642 155.65 59.0228 152.935 59.6743C150.275 60.3257 147.507 60.6514 144.629 60.6514Z" stroke="black" stroke-width="2" mask="url(#path-1-outside-1_306_31)"/>
<path d="M197.606 60V38.5839L175.864 2.34756H191.092L204.283 26.4508L217.801 2.34756H232.784L210.879 38.5025V60H197.606Z" stroke="black" stroke-width="2" mask="url(#path-1-outside-1_306_31)"/>
<path d="M290.618 60.6514C286.492 60.6514 282.665 60 279.137 58.6971C275.608 57.34 272.676 55.2499 270.342 52.427C268.062 49.5498 266.651 45.8855 266.108 41.434H279.462C279.897 43.1168 280.684 44.474 281.824 45.5055C283.018 46.5369 284.457 47.2969 286.139 47.7855C287.822 48.2198 289.614 48.4369 291.514 48.4369C292.817 48.4369 294.12 48.3012 295.423 48.0298C296.725 47.7041 297.811 47.1612 298.68 46.4012C299.548 45.6412 299.983 44.5826 299.983 43.2254C299.983 42.194 299.738 41.3797 299.25 40.7825C298.761 40.1311 298.055 39.6154 297.133 39.2353C296.264 38.8011 295.178 38.421 293.875 38.0953C293.061 37.8782 292.22 37.6882 291.351 37.5253C290.482 37.3625 289.641 37.1725 288.827 36.9553C288.012 36.7382 287.198 36.4939 286.384 36.2224C283.941 35.6253 281.607 34.9467 279.381 34.1867C277.155 33.3724 275.174 32.3409 273.436 31.0923C271.754 29.8438 270.424 28.2152 269.446 26.2065C268.469 24.1979 267.981 21.7008 267.981 18.715C267.981 15.8378 268.469 13.3949 269.446 11.3863C270.478 9.32339 271.835 7.66765 273.518 6.41905C275.255 5.11617 277.128 4.13901 279.137 3.48758C281.199 2.78185 283.235 2.29327 285.244 2.02183C287.307 1.7504 289.207 1.61469 290.944 1.61469C294.798 1.61469 298.218 2.32041 301.204 3.73186C304.244 5.14332 306.687 7.23335 308.533 10.002C310.433 12.7163 311.573 16.0821 311.953 20.0993H299.168C298.951 18.6878 298.381 17.5207 297.458 16.5978C296.59 15.6749 295.45 14.9692 294.038 14.4806C292.681 13.992 291.107 13.7478 289.315 13.7478C288.23 13.7478 287.171 13.8563 286.139 14.0735C285.162 14.2363 284.294 14.5078 283.534 14.8878C282.828 15.2678 282.231 15.7835 281.742 16.4349C281.308 17.0321 281.091 17.7921 281.091 18.715C281.091 19.6921 281.417 20.5336 282.068 21.2393C282.719 21.8908 283.642 22.4608 284.837 22.9493C286.085 23.4379 287.605 23.9265 289.397 24.4151C290.645 24.8494 291.921 25.2022 293.224 25.4737C294.581 25.6908 295.884 25.9894 297.133 26.3694C299.413 26.9123 301.503 27.5637 303.403 28.3237C305.357 29.0295 307.067 29.9523 308.533 31.0923C309.999 32.1781 311.139 33.6438 311.953 35.4896C312.821 37.281 313.256 39.5611 313.256 42.3297C313.256 45.6955 312.631 48.5455 311.383 50.8798C310.134 53.1599 308.424 55.0328 306.253 56.4985C304.081 57.9642 301.638 59.0228 298.924 59.6743C296.264 60.3257 293.495 60.6514 290.618 60.6514Z" stroke="black" stroke-width="2" mask="url(#path-1-outside-1_306_31)"/>
<path d="M340.318 60V14.5621H322.974V2.34756H371.018V14.5621H353.51V60H340.318Z" stroke="black" stroke-width="2" mask="url(#path-1-outside-1_306_31)"/>
<path d="M408.275 60.6514C402.575 60.6514 397.879 59.62 394.188 57.5571C390.496 55.4942 387.755 52.4541 385.963 48.4369C384.226 44.4197 383.357 39.5339 383.357 33.7795V2.34756H396.549V34.5124C396.549 36.8467 396.902 39.0725 397.608 41.1897C398.313 43.3068 399.535 45.044 401.272 46.4012C403.009 47.7041 405.398 48.3555 408.438 48.3555C411.532 48.3555 413.866 47.6769 415.441 46.3198C417.069 44.9626 418.182 43.2254 418.779 41.1082C419.431 38.9911 419.757 36.7924 419.757 34.5124V2.34756H432.948V33.7795C432.948 39.4796 432.08 44.3383 430.342 48.3555C428.605 52.3727 425.918 55.4399 422.281 57.5571C418.644 59.62 413.975 60.6514 408.275 60.6514Z" stroke="black" stroke-width="2" mask="url(#path-1-outside-1_306_31)"/>
<path d="M450.636 60V2.34756H472.785C478.811 2.34756 483.995 3.46043 488.338 5.68618C492.681 7.91193 496.019 11.1691 498.354 15.4578C500.742 19.7464 501.937 25.0665 501.937 31.4181C501.937 37.5525 500.797 42.764 498.517 47.0526C496.237 51.287 492.925 54.517 488.582 56.7428C484.293 58.9143 479.055 60 472.866 60H450.636ZM463.827 47.8669H472.948C476.802 47.8669 479.842 47.1612 482.068 45.7497C484.348 44.3383 485.976 42.384 486.954 39.8868C487.985 37.3896 488.501 34.5124 488.501 31.2552C488.501 28.1066 488.012 25.2837 487.035 22.7865C486.058 20.235 484.402 18.2264 482.068 16.7607C479.788 15.2949 476.612 14.5621 472.54 14.5621H463.827V47.8669Z" stroke="black" stroke-width="2" mask="url(#path-1-outside-1_306_31)"/>
<path d="M516.95 60V2.34756H530.142V60H516.95Z" stroke="black" stroke-width="2" mask="url(#path-1-outside-1_306_31)"/>
<path d="M573.846 60.6514C567.929 60.6514 562.799 59.43 558.456 56.9871C554.167 54.4899 550.856 51.0427 548.522 46.6455C546.187 42.194 545.02 37.0639 545.02 31.2552C545.02 25.2837 546.214 20.0993 548.603 15.7021C551.046 11.2506 554.439 7.80336 558.782 5.36047C563.125 2.86328 568.255 1.61469 574.172 1.61469C579.981 1.61469 585.029 2.83613 589.318 5.27903C593.661 7.72193 597.027 11.142 599.415 15.5392C601.858 19.8821 603.08 25.0122 603.08 30.9295C603.08 36.7382 601.885 41.8954 599.497 46.4012C597.108 50.8527 593.715 54.3542 589.318 56.9057C584.975 59.4028 579.818 60.6514 573.846 60.6514ZM574.091 48.1926C577.782 48.1926 580.768 47.3512 583.048 45.6683C585.328 43.9854 586.984 41.8411 588.015 39.2353C589.047 36.6296 589.562 33.9695 589.562 31.2552C589.562 29.2466 589.264 27.238 588.667 25.2294C588.124 23.2208 587.228 21.375 585.979 19.6921C584.785 18.0093 583.211 16.6521 581.256 15.6206C579.302 14.5892 576.886 14.0735 574.009 14.0735C570.372 14.0735 567.413 14.9149 565.133 16.5978C562.853 18.2264 561.17 20.3436 560.085 22.9493C559.053 25.5551 558.537 28.2966 558.537 31.1738C558.537 34.051 559.08 36.7924 560.166 39.3982C561.252 42.004 562.935 44.1211 565.215 45.7497C567.549 47.3783 570.508 48.1926 574.091 48.1926Z" stroke="black" stroke-width="2" mask="url(#path-1-outside-1_306_31)"/>
</svg>
