<svg width="51" height="55" viewBox="0 0 51 55" fill="none" xmlns="http://www.w3.org/2000/svg">
<path fill-rule="evenodd" clip-rule="evenodd" d="M33.3134 44.0562C33.3734 45.9363 32.0201 46.8548 29.5968 46.8912C27.1734 46.9277 23.3634 46.8415 21.1134 46.8382C18.8034 46.8382 17.8634 45.5715 17.8168 43.718C17.6734 37.8391 17.8834 23.4917 17.8901 22.2649C17.8901 20.1626 18.7334 19.148 20.5568 19.1182C22.0301 19.095 28.4868 19.0419 30.3768 19.0519C32.5301 19.0519 33.2968 20.4611 33.3268 22.4108C33.3468 23.4851 33.1368 38.3862 33.3134 44.0562ZM21.7234 21.7808C19.8101 21.8106 19.6968 24.765 21.9068 24.7418C23.7668 24.7119 23.6701 21.7509 21.7234 21.7808ZM24.7234 15.6432L26.9968 10.5734L29.1668 11.661L26.3101 16.3926L24.7234 15.6432ZM18.2734 10.0992L20.6968 9.6748L21.2534 15.0829L19.2534 15.3581L18.2734 10.0992ZM10.3068 15.0729L11.8068 13.3023L15.9368 17.2149L14.6334 18.4915L10.3068 15.0729ZM13.6468 23.8631L8.1001 24.0255L8.1901 21.6448L13.6368 22.0991L13.6468 23.8631ZM15.8334 28.9826L11.4668 32.3382L10.1134 30.2261L14.7801 27.6066L15.8334 28.9826Z" fill="white"/>
</svg>
