<svg width="44" height="48" viewBox="0 0 44 48" fill="none" xmlns="http://www.w3.org/2000/svg">
<path fill-rule="evenodd" clip-rule="evenodd" d="M30.986 39.2496C31.0431 41.0678 29.7556 41.956 27.4503 41.9913C25.1449 42.0266 21.5204 41.9432 19.3799 41.94C17.1823 41.94 16.2881 40.7151 16.2437 38.9226C16.1073 33.2372 16.3071 19.3621 16.3135 18.1756C16.3135 16.1426 17.1157 15.1614 18.8503 15.1325C20.2519 15.1101 26.3943 15.0588 28.1923 15.0684C30.2408 15.0684 30.9702 16.4312 30.9987 18.3167C31.0177 19.3557 30.818 33.7663 30.986 39.2496ZM19.9602 17.7074C18.14 17.7363 18.0322 20.5934 20.1346 20.571C21.9041 20.5421 21.8121 17.6786 19.9602 17.7074ZM22.8142 11.772L24.9768 6.869L27.0412 7.92078L24.3236 12.4967L22.8142 11.772ZM16.6781 6.41045L18.9835 6L19.5131 11.23L17.6104 11.4962L16.6781 6.41045ZM9.09925 11.2204L10.5262 9.50806L14.4552 13.2919L13.2153 14.5265L9.09925 11.2204ZM12.2767 19.7212L7 19.8783L7.08562 17.576L12.2672 18.0153L12.2767 19.7212ZM14.3569 24.6723L10.2028 27.9174L8.91533 25.8748L13.3548 23.3415L14.3569 24.6723Z" fill="white"/>
</svg>
