<svg width="44" height="48" viewBox="0 0 44 48" fill="none" xmlns="http://www.w3.org/2000/svg">
<path fill-rule="evenodd" clip-rule="evenodd" d="M37.8529 35.0392C34.8763 35.0392 4.04083 34.9566 4.04083 34.9566V31.8051L41.7941 31.1871C41.7941 31.1871 42.2673 35.0392 37.8529 35.0392ZM4.25758 29.0634C1.36766 25.0711 4.17811 16.7704 5.53998 16.7704C6.90186 16.7704 8.35043 19.1061 11.1609 19.045C12.1904 19.0235 13.4764 18.2401 15.1345 17.4316C14.3253 14.5784 16.7709 12.6667 16.7709 12.6667L20.7446 15.7068C21.1058 15.6744 21.514 15.6529 21.9186 15.6529C21.9186 15.6529 22.9771 16.4039 24.5846 17.4783L21.9981 19.4834L23.3058 20.9495L26.8857 18.9839C27.4384 19.3433 28.0164 19.7026 28.6124 20.0619L25.9139 21.9952L27.2216 23.4325L30.881 21.4346C31.524 21.794 32.167 22.1533 32.8028 22.5126L29.9851 24.3992L31.3253 25.8114L35.3893 23.835C36.4397 24.3521 37.5497 24.7395 38.6946 24.9885C41.9458 25.5383 41.8193 29.5844 41.8193 29.5844C41.8193 29.5844 7.69659 29.067 4.24674 29.067L4.25758 29.0634ZM18.3098 20.8776L17.656 21.237C18.9239 25.815 16.7637 25.3981 6.58397 21.9557L6.31665 22.412C23.1721 31.5213 22.0053 24.7441 18.299 20.8812L18.3098 20.8776Z" fill="white"/>
</svg>
