<svg width="50" height="55" viewBox="0 0 50 55" fill="none" xmlns="http://www.w3.org/2000/svg">
<path fill-rule="evenodd" clip-rule="evenodd" d="M40.8529 39.0392C37.8763 39.0392 7.04083 38.9566 7.04083 38.9566V35.8051L44.7941 35.1871C44.7941 35.1871 45.2673 39.0392 40.8529 39.0392ZM7.25758 33.0634C4.36766 29.0711 7.17811 20.7704 8.53998 20.7704C9.90186 20.7704 11.3504 23.1061 14.1609 23.045C15.1904 23.0235 16.4764 22.2401 18.1345 21.4316C17.3253 18.5784 19.7709 16.6667 19.7709 16.6667L23.7446 19.7068C24.1058 19.6744 24.514 19.6529 24.9186 19.6529C24.9186 19.6529 25.9771 20.4039 27.5846 21.4783L24.9981 23.4834L26.3058 24.9495L29.8857 22.9839C30.4384 23.3433 31.0164 23.7026 31.6124 24.0619L28.9139 25.9952L30.2216 27.4325L33.881 25.4346C34.524 25.794 35.167 26.1533 35.8028 26.5126L32.9851 28.3992L34.3253 29.8114L38.3893 27.835C39.4397 28.3521 40.5497 28.7395 41.6946 28.9885C44.9458 29.5383 44.8193 33.5844 44.8193 33.5844C44.8193 33.5844 10.6966 33.067 7.24674 33.067L7.25758 33.0634ZM21.3098 24.8776L20.656 25.237C21.9239 29.815 19.7637 29.3981 9.58397 25.9557L9.31665 26.412C26.1721 35.5213 25.0053 28.7441 21.299 24.8812L21.3098 24.8776Z" fill="white"/>
</svg>
