<svg width="64" height="22" viewBox="0 0 64 22" fill="white" xmlns="http://www.w3.org/2000/svg">
<path d="M7.54527 14.2827C6.4297 14.2827 5.40541 14.1113 4.4724 13.7683C3.55966 13.4254 2.76863 12.9513 2.09929 12.3461C1.42995 11.7207 0.912734 10.9844 0.54764 10.1371C0.182547 9.26966 0 8.31143 0 7.26241C0 6.15288 0.192688 5.1543 0.578065 4.26667C0.963441 3.35887 1.4908 2.59228 2.16014 1.9669C2.82948 1.34153 3.61037 0.857368 4.50282 0.514421C5.39527 0.171474 6.34857 0 7.36272 0C8.458 0 9.43159 0.191647 10.2835 0.574942C11.1556 0.938062 11.8858 1.45248 12.474 2.1182C13.0622 2.76375 13.5085 3.53034 13.8127 4.41797C14.1372 5.28542 14.2995 6.22348 14.2995 7.23215V8.01891H3.65094C3.83348 9.0881 4.28985 9.90512 5.02004 10.47C5.77051 11.0348 6.71367 11.3173 7.84951 11.3173C8.66083 11.3173 9.4113 11.176 10.1009 10.8936C10.8108 10.591 11.399 10.1775 11.8655 9.65295L13.9648 11.5593C13.2549 12.447 12.3422 13.1228 11.2266 13.5868C10.1111 14.0507 8.88394 14.2827 7.54527 14.2827ZM7.2106 3.02601C6.31815 3.02601 5.56768 3.26809 4.95919 3.75225C4.37098 4.21623 3.96532 4.88195 3.74221 5.74941H10.679C10.5573 4.98282 10.1922 4.33727 9.58371 3.81277C8.97522 3.28826 8.18418 3.02601 7.2106 3.02601Z" fill="white"/>
<path d="M22.7325 14.2827C21.9009 14.2827 21.0896 14.1113 20.2986 13.7683C19.5278 13.4254 18.8382 12.9412 18.2297 12.3158C17.6415 11.6905 17.1649 10.9441 16.7998 10.0766C16.4347 9.18897 16.2521 8.21056 16.2521 7.14137C16.2521 6.07218 16.4245 5.10386 16.7693 4.23641C17.1344 3.34878 17.6111 2.59228 18.1993 1.9669C18.8078 1.34153 19.4974 0.857368 20.2682 0.514421C21.0592 0.171474 21.8807 0 22.7325 0C23.767 0 24.6797 0.201734 25.4707 0.605201C26.2821 1.00867 26.921 1.50292 27.3875 2.08794V0.242081H30.9472V14.0709H27.3875V12.1948C26.8804 12.8202 26.2212 13.3245 25.4099 13.7078C24.5986 14.0911 23.7061 14.2827 22.7325 14.2827ZM23.7365 11.0752C24.771 11.0752 25.5924 10.7221 26.2009 10.0161C26.8297 9.28983 27.1542 8.35177 27.1745 7.20189V6.95981C27.1745 5.89062 26.8601 5.01308 26.2314 4.32719C25.6026 3.64129 24.771 3.29835 23.7365 3.29835C23.27 3.29835 22.8238 3.37904 22.3979 3.54043C21.9719 3.70181 21.5967 3.94389 21.2722 4.26667C20.9476 4.58944 20.6941 4.99291 20.5116 5.47707C20.329 5.96123 20.2377 6.516 20.2377 7.14137C20.2377 8.35177 20.5623 9.31001 21.2113 10.0161C21.8807 10.7221 22.7224 11.0752 23.7365 11.0752Z" fill="white"/>
<path d="M38.8337 14.3433C37.5965 14.3433 36.5215 14.1516 35.6087 13.7683C34.7163 13.385 33.9861 12.8504 33.4182 12.1645L35.1828 9.80426C35.6493 10.2682 36.1969 10.6515 36.8257 10.9541C37.4748 11.2567 38.1745 11.408 38.925 11.408C40.142 11.408 40.7505 11.0348 40.7505 10.2884C40.7505 9.9253 40.5781 9.63278 40.2333 9.41087C39.9087 9.18897 39.4929 8.98723 38.9859 8.80567C38.4788 8.60394 37.9311 8.40221 37.3429 8.20047C36.7547 7.97857 36.2071 7.70623 35.7 7.38345C35.1929 7.0405 34.767 6.61686 34.4222 6.11253C34.0977 5.58802 33.9354 4.93239 33.9354 4.14563C33.9354 2.81418 34.4425 1.79543 35.4566 1.08936C36.4708 0.363121 37.7689 0 39.351 0C40.5071 0 41.4807 0.18156 42.2717 0.544681C43.083 0.887629 43.7219 1.28101 44.1884 1.72482L42.5759 4.14563C42.15 3.76233 41.6734 3.45973 41.146 3.23783C40.6186 3.01592 40.0609 2.90496 39.4726 2.90496C38.8236 2.90496 38.3571 3.01592 38.0731 3.23783C37.7892 3.43956 37.6472 3.68164 37.6472 3.96407C37.6472 4.30701 37.8094 4.57935 38.134 4.78109C38.4788 4.98282 38.9047 5.16438 39.4118 5.32577C39.9189 5.46698 40.4665 5.62837 41.0547 5.80993C41.6429 5.99149 42.1906 6.24366 42.6976 6.56643C43.2047 6.8892 43.6205 7.31284 43.945 7.83735C44.2899 8.36186 44.4623 9.04775 44.4623 9.89503C44.4623 10.6818 44.3101 11.3576 44.0059 11.9225C43.7219 12.4873 43.3264 12.9513 42.8193 13.3144C42.3123 13.6775 41.7139 13.9398 41.0243 14.1012C40.355 14.2626 39.6248 14.3433 38.8337 14.3433Z" fill="white"/>
<path d="M48.7576 20.8794L51.1003 14.2222L45.4109 0.938062V0.242081H49.1835L52.8649 9.28983L56.0899 0.242081H59.4974L59.467 0.938062L52.1651 21.3333H48.7576V20.8794Z" fill="white"/>
<path d="M61.7486 14.3735C61.0387 14.3735 60.491 14.1718 60.1057 13.7683C59.7406 13.3447 59.558 12.8403 59.558 12.2553C59.558 11.6299 59.7406 11.1054 60.1057 10.6818C60.4708 10.2582 61.0184 10.0463 61.7486 10.0463C62.4788 10.0463 63.0366 10.2582 63.4219 10.6818C63.8073 11.1054 64 11.6299 64 12.2553C64 12.8403 63.7972 13.3447 63.3915 13.7683C63.0061 14.1718 62.4585 14.3735 61.7486 14.3735Z" fill="white"/>
</svg>
