<svg width="16" height="16" viewBox="0 0 16 16" fill="none" xmlns="http://www.w3.org/2000/svg">
<path d="M8.54527 15.2827C7.4297 15.2827 6.40541 15.1113 5.4724 14.7683C4.55966 14.4254 3.76863 13.9513 3.09929 13.3461C2.42995 12.7207 1.91273 11.9844 1.54764 11.1371C1.18255 10.2697 1 9.31143 1 8.26241C1 7.15288 1.19269 6.1543 1.57806 5.26667C1.96344 4.35887 2.4908 3.59228 3.16014 2.9669C3.82948 2.34153 4.61037 1.85737 5.50282 1.51442C6.39527 1.17147 7.34857 1 8.36272 1C9.458 1 10.4316 1.19165 11.2835 1.57494C12.1556 1.93806 12.8858 2.45248 13.474 3.1182C14.0622 3.76375 14.5085 4.53034 14.8127 5.41797C15.1372 6.28542 15.2995 7.22348 15.2995 8.23215V9.01891H4.65094C4.83348 10.0881 5.28985 10.9051 6.02004 11.47C6.77051 12.0348 7.71367 12.3173 8.84951 12.3173C9.66083 12.3173 10.4113 12.176 11.1009 11.8936C11.8108 11.591 12.399 11.1775 12.8655 10.653L14.9648 12.5593C14.2549 13.447 13.3422 14.1228 12.2266 14.5868C11.1111 15.0507 9.88394 15.2827 8.54527 15.2827ZM8.2106 4.02601C7.31815 4.02601 6.56768 4.26809 5.95919 4.75225C5.37098 5.21623 4.96532 5.88195 4.74221 6.74941H11.679C11.5573 5.98282 11.1922 5.33727 10.5837 4.81277C9.97522 4.28826 9.18418 4.02601 8.2106 4.02601Z" fill="black"/>
</svg>
